<svg width="20" height="19" viewBox="0 0 20 19" fill="none" xmlns="http://www.w3.org/2000/svg">
<path d="M18 4.00101H15.82C15.93 3.69101 16 3.35101 16 3.00101C16.0011 2.35584 15.7939 1.72755 15.4092 1.20961C15.0245 0.691666 14.4829 0.311743 13.8649 0.126353C13.2469 -0.0590374 12.5856 -0.0399889 11.9794 0.180665C11.3731 0.401318 10.8542 0.811787 10.5 1.35101L10 2.02101L9.5 1.34101C8.96 0.541014 8.05 0.00101409 7 0.00101409C5.34 0.00101409 4 1.34101 4 3.00101C4 3.35101 4.07 3.69101 4.18 4.00101H2C0.89 4.00101 0.00999999 4.89101 0.00999999 6.00101L0 17.001C0 18.111 0.89 19.001 2 19.001H18C19.11 19.001 20 18.111 20 17.001V6.00101C20 4.89101 19.11 4.00101 18 4.00101ZM13 2.00101C13.55 2.00101 14 2.45101 14 3.00101C14 3.55101 13.55 4.00101 13 4.00101C12.45 4.00101 12 3.55101 12 3.00101C12 2.45101 12.45 2.00101 13 2.00101ZM7 2.00101C7.55 2.00101 8 2.45101 8 3.00101C8 3.55101 7.55 4.00101 7 4.00101C6.45 4.00101 6 3.55101 6 3.00101C6 2.45101 6.45 2.00101 7 2.00101ZM18 17.001H2V15.001H18V17.001ZM18 12.001H2V6.00101H7.08L5 8.83101L6.62 10.001L10 5.40101L13.38 10.001L15 8.83101L12.92 6.00101H18V12.001Z" fill="#FF7235"/>
</svg>
